<?xml version="1.0" encoding="UTF-8" standalone="no"?><!DOCTYPE svg PUBLIC "-//W3C//DTD SVG 1.1//EN" "http://www.w3.org/Graphics/SVG/1.1/DTD/svg11.dtd"><svg xmlns="http://www.w3.org/2000/svg" xmlns:xlink="http://www.w3.org/1999/xlink" version="1.1" width="560" height="390" viewBox="0 0 560 390">
<desc>Created with SVGMaker Editor 3.4.1</desc>
<defs>
</defs>
<rect style="fill: rgb(255,255,255)" x="0" y="0" width="100" height="100"/>
<text transform="matrix(1 0 0 1 280.3594 26.4814)" style="fill: rgb(0,0,0); text-decoration-thickness: 6.6667%; white-space: pre" x="-80.64063" y="7.53936" font-family="Arial, sans-serif" font-size="24" font-style="normal" font-weight="bold"><tspan x="-80.64063" y="7.53936">T</tspan><tspan x="-66.76172" y="7.53936">a</tspan><tspan x="-52.41406" y="7.53936">m</tspan><tspan x="-30.07422" y="7.53936" style="white-space: pre; "> </tspan><tspan x="-22.40625" y="7.53936">g</tspan><tspan x="-6.74609" y="7.53936">i</tspan><tspan x="0.92188" y="7.53936">á</tspan><tspan x="15.26953" y="7.53936">c</tspan><tspan x="29.61719" y="7.53936" style="white-space: pre; "> </tspan><tspan x="37.28516" y="7.53936">c</tspan><tspan x="51.63281" y="7.53936">â</tspan><tspan x="65.98047" y="7.53936">n</tspan></text>
<polygon style="stroke: rgb(34,34,34); stroke-width: 3; fill: none" points="280,75 145,300 415,300"/>
<line style="stroke: rgb(21,101,192); stroke-width: 2.5; stroke-dasharray: 8 6; fill: rgb(0,0,0)" x1="280" y1="75" x2="280" y2="300"/>
<line style="stroke: rgb(211,47,47); stroke-width: 3; fill: rgb(0,0,0)" x1="200.3594" y1="191" x2="214.3594" y2="199"/>
<line style="stroke: rgb(211,47,47); stroke-width: 3; fill: rgb(0,0,0)" x1="346.3594" y1="199" x2="360.3594" y2="191"/>
<path style="stroke: rgb(24,128,56); stroke-width: 3; fill: none" stroke-linecap="round" d="M373 298.5C375.9054 286.2894 385.681 276.9047 398 274.5"/>
<path style="stroke: rgb(24,128,56); stroke-width: 3; fill: none" stroke-linecap="round" d="M158.2707 274.5C170.5897 276.9047 180.3654 286.2894 183.2707 298.5"/>
<rect style="stroke: rgb(34,34,34); stroke-width: 2; fill: none" x="280" y="288" width="12" height="12"/>
<circle style="fill: rgb(34,34,34)" cx="280" cy="75" r="4"/>
<circle style="fill: rgb(34,34,34)" cx="145" cy="300" r="4"/>
<circle style="fill: rgb(34,34,34)" cx="415" cy="300" r="4"/>
<circle style="fill: rgb(34,34,34)" cx="280" cy="300" r="4"/>
<text transform="matrix(1 0 0 1 276.5 57.361)" style="fill: rgb(0,0,0); text-decoration-thickness: 6.6667%; white-space: pre" x="-6.5" y="5.65452" font-family="Arial, sans-serif" font-size="18" font-style="normal" font-weight="normal"><tspan x="-6.5" y="5.65452">A</tspan></text>
<text transform="matrix(1 0 0 1 134.5 316.361)" style="fill: rgb(0,0,0); text-decoration-thickness: 6.6667%; white-space: pre" x="-6.5" y="5.65452" font-family="Arial, sans-serif" font-size="18" font-style="normal" font-weight="normal"><tspan x="-6.5" y="5.65452">B</tspan></text>
<text transform="matrix(1 0 0 1 427.5 316.361)" style="fill: rgb(0,0,0); text-decoration-thickness: 6.6667%; white-space: pre" x="-6.5" y="5.65452" font-family="Arial, sans-serif" font-size="18" font-style="normal" font-weight="normal"><tspan x="-6.5" y="5.65452">C</tspan></text>
<text transform="matrix(1 0 0 1 293.5 316.361)" style="fill: rgb(0,0,0); text-decoration-thickness: 6.6667%; white-space: pre" x="-6.5" y="5.65452" font-family="Arial, sans-serif" font-size="18" font-style="normal" font-weight="normal"><tspan x="-6.5" y="5.65452">H</tspan></text>
<text transform="matrix(1 0 0 1 380.7708 283.33)" style="fill: rgb(24,128,56); text-decoration-thickness: 6.6667%; white-space: pre" x="-4.5" y="5.65452" font-family="Arial, sans-serif" font-size="18" font-style="normal" font-weight="normal"><tspan x="-4.5" y="5.65452">x</tspan></text>
<text transform="matrix(1 0 0 1 175.7708 283.33)" style="fill: rgb(24,128,56); text-decoration-thickness: 6.6667%; white-space: pre" x="-4.5" y="5.65452" font-family="Arial, sans-serif" font-size="18" font-style="normal" font-weight="normal"><tspan x="-4.5" y="5.65452">x</tspan></text>
<text transform="matrix(1 0 0 1 280.2708 351.0478)" style="fill: rgb(0,0,0); text-decoration-thickness: 6.6667%; white-space: pre" x="-94.72925" y="5.96866" font-family="Arial, sans-serif" font-size="19" font-style="normal" font-weight="normal"><tspan x="-94.72925" y="5.96866">A</tspan><tspan x="-81.0564" y="5.96866">B</tspan><tspan x="-67.38354" y="5.96866" style="white-space: pre; "> </tspan><tspan x="-61.10474" y="5.96866">=</tspan><tspan x="-49.00903" y="5.96866" style="white-space: pre; "> </tspan><tspan x="-42.73022" y="5.96866">A</tspan><tspan x="-29.05737" y="5.96866">C</tspan><tspan x="-14.33618" y="5.96866" style="white-space: pre; "> </tspan><tspan x="-8.05737" y="5.96866">⇒</tspan><tspan x="9.39136" y="5.96866" style="white-space: pre; "> </tspan><tspan x="15.67017" y="5.96866">∠</tspan><tspan x="29.17603" y="5.96866">B</tspan><tspan x="42.84888" y="5.96866" style="white-space: pre; "> </tspan><tspan x="49.12769" y="5.96866">=</tspan><tspan x="61.22339" y="5.96866" style="white-space: pre; "> </tspan><tspan x="67.5022" y="5.96866">∠</tspan><tspan x="81.00806" y="5.96866">C</tspan></text>
</svg>